<svg width="245" height="245" viewBox="0 0 245 245" fill="none" xmlns="http://www.w3.org/2000/svg">
<path d="M71.553 5.79218C78.7777 -1.43252 90.4913 -1.43252 97.716 5.79218C104.941 13.0169 104.941 24.7304 97.716 31.9551L31.9551 97.7161C24.7304 104.941 13.0168 104.941 5.79212 97.7161C-1.43258 90.4914 -1.43258 78.7778 5.79212 71.5531L71.553 5.79218Z" fill="#DDFFC9"/>
<path d="M142.264 5.79218C149.488 -1.43252 161.202 -1.43252 168.427 5.79218C175.651 13.0169 175.651 24.7304 168.427 31.9551L31.9551 168.427C24.7304 175.651 13.0168 175.651 5.79212 168.427C-1.43258 161.202 -1.43258 149.488 5.79212 142.264L142.264 5.79218Z" fill="#BFFF9A"/>
<path d="M212.974 5.79218C220.199 -1.43252 231.913 -1.43252 239.137 5.79218C246.362 13.0169 246.362 24.7304 239.137 31.9551L31.9551 239.137C24.7304 246.362 13.0168 246.362 5.79212 239.137C-1.43258 231.913 -1.43258 220.199 5.79212 212.974L212.974 5.79218Z" fill="#8FFF4E"/>
<path d="M212.974 76.5029C220.199 69.2782 231.913 69.2782 239.137 76.5029C246.362 83.7276 246.362 95.4411 239.137 102.666L102.666 239.137C95.441 246.362 83.7275 246.362 76.5028 239.137C69.2781 231.913 69.2781 220.199 76.5028 212.974L212.974 76.5029Z" fill="#BFFF9A"/>
<path d="M212.974 147.214C220.199 139.989 231.913 139.989 239.137 147.214C246.362 154.438 246.362 166.152 239.137 173.376L173.376 239.137C166.152 246.362 154.438 246.362 147.213 239.137C139.989 231.913 139.989 220.199 147.213 212.974L212.974 147.214Z" fill="#DDFFC9"/>
</svg>
