<svg width="246" height="246" viewBox="0 0 246 246" fill="none" xmlns="http://www.w3.org/2000/svg">
<path d="M72.7541 6.28605C79.9788 -0.93865 91.6924 -0.938653 98.9171 6.28605C106.142 13.5107 106.142 25.2243 98.9171 32.449L32.449 98.917C25.2243 106.142 13.5108 106.142 6.28608 98.917C-0.938621 91.6923 -0.938621 79.9788 6.28608 72.7541L72.7541 6.28605Z" fill="#DDFFC9"/>
<path d="M134.272 15.4784C141.497 8.25373 153.211 8.25374 160.435 15.4784C167.66 22.7031 167.66 34.4167 160.435 41.6414L41.6414 160.435C34.4167 167.66 22.7032 167.66 15.4785 160.435C8.25377 153.211 8.25377 141.497 15.4785 134.272L134.272 15.4784Z" fill="#BFFF9A"/>
<path d="M193.669 26.7921C200.894 19.5674 212.608 19.5674 219.832 26.7921C227.057 34.0168 227.057 45.7304 219.832 52.9551L52.9551 219.832C45.7304 227.057 34.0169 227.057 26.7922 219.832C19.5675 212.608 19.5675 200.894 26.7922 193.669L193.669 26.7921Z" fill="#8FFF4E"/>
<path d="M204.983 86.1891C212.208 78.9644 223.921 78.9644 231.146 86.1891C238.371 93.4138 238.371 105.127 231.146 112.352L112.352 231.146C105.127 238.371 93.4138 238.371 86.1891 231.146C78.9644 223.921 78.9644 212.208 86.1891 204.983L204.983 86.1891Z" fill="#BFFF9A"/>
<path d="M214.175 147.707C221.4 140.483 233.114 140.483 240.338 147.707C247.563 154.932 247.563 166.646 240.338 173.87L173.87 240.338C166.646 247.563 154.932 247.563 147.707 240.338C140.483 233.114 140.483 221.4 147.707 214.175L214.175 147.707Z" fill="#DDFFC9"/>
</svg>
